<?xml version="1.0" encoding="UTF-8" standalone="no"?>
<!-- Uploaded to: SVG Repo, www.svgrepo.com, Transformed by: SVG Repo Mixer Tools -->

<svg
   fill="#000000"
   width="64px"
   height="64px"
   viewBox="0 0 32 32"
   version="1.1"
   id="svg7"
   sodipodi:docname="caveat.svg"
   inkscape:version="1.2.1 (9c6d41e410, 2022-07-14)"
   xmlns:inkscape="http://www.inkscape.org/namespaces/inkscape"
   xmlns:sodipodi="http://sodipodi.sourceforge.net/DTD/sodipodi-0.dtd"
   xmlns="http://www.w3.org/2000/svg"
   xmlns:svg="http://www.w3.org/2000/svg">
  <defs
     id="defs11">
    <linearGradient
       id="linearGradient2146"
       inkscape:swatch="solid">
      <stop
         style="stop-color:#ffffff;stop-opacity:1;"
         offset="0"
         id="stop2144" />
    </linearGradient>
  </defs>
  <sodipodi:namedview
     id="namedview9"
     pagecolor="#ffffff"
     bordercolor="#000000"
     borderopacity="0.25"
     inkscape:showpageshadow="2"
     inkscape:pageopacity="0.0"
     inkscape:pagecheckerboard="0"
     inkscape:deskcolor="#d1d1d1"
     showgrid="false"
     inkscape:zoom="13.75"
     inkscape:cx="21.854545"
     inkscape:cy="33.527273"
     inkscape:window-width="2560"
     inkscape:window-height="1369"
     inkscape:window-x="2552"
     inkscape:window-y="0"
     inkscape:window-maximized="1"
     inkscape:current-layer="svg7" />
  <g
     id="SVGRepo_bgCarrier"
     stroke-width="0" />
  <g
     id="SVGRepo_tracerCarrier"
     stroke-linecap="round"
     stroke-linejoin="round" />
  <g
     id="SVGRepo_iconCarrier"
     style="fill:#ffffff;stroke:#000000;stroke-width:1;stroke-dasharray:none;stroke-opacity:0"
     transform="matrix(0.9698186,0,0,0.96957822,0.48484777,0.48870932)">
    <path
       d="M 16,0 C 24.836556,0 32,7.163444 32,16 32,24.836556 24.836556,32 16,32 7.163444,32 0,24.836556 0,16 0,7.163444 7.163444,0 16,0 Z m 0,2 C 8.2680135,2 2,8.2680135 2,16 2,23.731986 8.2680135,30 16,30 23.731986,30 30,23.731986 30,16 30,8.2680135 23.731986,2 16,2 Z m 1.2,17.5 v 2.4 H 14.8 V 19.5 Z M 17,9 c 0.03726,1.210909 0.06143,3.050438 0,9 H 15 V 9 Z"
       id="path4"
       style="fill:#ffffff;stroke:#000000;stroke-width:0.53573358;stroke-dasharray:none;stroke-opacity:0"
       sodipodi:nodetypes="sssssssssscccccccccc" />
  </g>
</svg>
