<?xml version="1.0" encoding="UTF-8" standalone="no"?>
<!-- Uploaded to: SVG Repo, www.svgrepo.com, Transformed by: SVG Repo Mixer Tools -->

<svg
   width="64px"
   height="64px"
   viewBox="0 0 24 24"
   fill="none"
   version="1.1"
   id="svg7"
   sodipodi:docname="copy.svg"
   inkscape:version="1.2.1 (9c6d41e410, 2022-07-14)"
   xmlns:inkscape="http://www.inkscape.org/namespaces/inkscape"
   xmlns:sodipodi="http://sodipodi.sourceforge.net/DTD/sodipodi-0.dtd"
   xmlns="http://www.w3.org/2000/svg"
   xmlns:svg="http://www.w3.org/2000/svg">
  <defs
     id="defs11" />
  <sodipodi:namedview
     id="namedview9"
     pagecolor="#ffffff"
     bordercolor="#000000"
     borderopacity="0.25"
     inkscape:showpageshadow="2"
     inkscape:pageopacity="0.0"
     inkscape:pagecheckerboard="0"
     inkscape:deskcolor="#d1d1d1"
     showgrid="false"
     inkscape:zoom="13.75"
     inkscape:cx="23.163636"
     inkscape:cy="32"
     inkscape:window-width="2560"
     inkscape:window-height="1369"
     inkscape:window-x="2552"
     inkscape:window-y="0"
     inkscape:window-maximized="1"
     inkscape:current-layer="svg7" />
  <g
     id="SVGRepo_bgCarrier"
     stroke-width="0" />
  <g
     id="SVGRepo_tracerCarrier"
     stroke-linecap="round"
     stroke-linejoin="round" />
  <g
     id="SVGRepo_iconCarrier"
     transform="matrix(0.66993008,0,0,0.60169134,3.960839,4.7797038)"
     style="fill:#ffffff">
    <path
       fill-rule="evenodd"
       clip-rule="evenodd"
       d="M 15,1.25 H 10.9436 C 9.10583,1.24998 7.65019,1.24997 6.51098,1.40314 5.33856,1.56076 4.38961,1.89288 3.64124,2.64124 2.89288,3.38961 2.56076,4.33856 2.40314,5.51098 2.24997,6.65019 2.24998,8.10582 2.25,9.94357 V 16 c 0,1.8722 1.37205,3.424 3.16551,3.7047 0.13797,0.764 0.40202,1.4161 0.93284,1.947 0.60192,0.6019 1.35979,0.8608 2.2599,0.9818 C 9.47522,22.75 10.5775,22.75 11.9451,22.75 h 3.1098 c 1.3676,0 2.4699,0 3.3369,-0.1165 0.9001,-0.121 1.6579,-0.3799 2.2599,-0.9818 0.6019,-0.602 0.8608,-1.3598 0.9818,-2.2599 0.1165,-0.867 0.1165,-1.9693 0.1165,-3.3369 v -5.1098 c 0,-1.36756 0,-2.46988 -0.1165,-3.33685 C 21.5125,6.70814 21.2536,5.95027 20.6517,5.34835 20.1208,4.81753 19.4687,4.55348 18.7047,4.41551 18.424,2.62205 16.8722,1.25 15,1.25 Z m 2.1293,3.02117 C 16.8265,3.38623 15.9876,2.75 15,2.75 H 11 C 9.09318,2.75 7.73851,2.75159 6.71085,2.88976 5.70476,3.02502 5.12511,3.27869 4.7019,3.7019 4.27869,4.12511 4.02502,4.70476 3.88976,5.71085 3.75159,6.73851 3.75,8.09318 3.75,10 v 6 c 0,0.9876 0.63624,1.8265 1.52117,2.1293 C 5.24998,17.5194 5.24999,16.8297 5.25,16.0549 V 10.9451 C 5.24998,9.57754 5.24996,8.47522 5.36652,7.60825 5.48754,6.70814 5.74643,5.95027 6.34835,5.34835 6.95027,4.74643 7.70814,4.48754 8.60825,4.36652 9.47522,4.24996 10.5775,4.24998 11.9451,4.25 h 3.1098 c 0.7748,-10e-6 1.4645,-2e-5 2.0744,0.02117 z M 7.40901,6.40901 C 7.68577,6.13225 8.07435,5.9518 8.80812,5.85315 9.56347,5.75159 10.5646,5.75 12,5.75 h 3 c 1.4354,0 2.4365,0.00159 3.1919,0.10315 0.7338,0.09865 1.1223,0.2791 1.3991,0.55586 0.2768,0.27676 0.4572,0.66534 0.5559,1.39911 C 20.2484,8.56347 20.25,9.56458 20.25,11 v 5 c 0,1.4354 -0.0016,2.4365 -0.1031,3.1919 -0.0987,0.7338 -0.2791,1.1223 -0.5559,1.3991 -0.2768,0.2768 -0.6653,0.4572 -1.3991,0.5559 C 17.4365,21.2484 16.4354,21.25 15,21.25 H 12 C 10.5646,21.25 9.56347,21.2484 8.80812,21.1469 8.07435,21.0482 7.68577,20.8678 7.40901,20.591 7.13225,20.3142 6.9518,19.9257 6.85315,19.1919 6.75159,18.4365 6.75,17.4354 6.75,16 V 11 C 6.75,9.56458 6.75159,8.56347 6.85315,7.80812 6.9518,7.07435 7.13225,6.68577 7.40901,6.40901 Z"
       fill="#1c274c"
       id="path4"
       style="fill:#ffffff" />
  </g>
</svg>
