<svg xmlns="http://www.w3.org/2000/svg" fill="#ffffff" width="37.987" height="36.701" viewBox="0 0 59.355 57.345" stroke="#ffffff" xmlns:v="https://vecta.io/nano"><defs><linearGradient ><stop offset="0"/></linearGradient></defs><g stroke="none"><path d="M29.768 29.314l5.639-7.921a.54.54 0 0 0 .04-.563c-.094-.182-.298-.294-.503-.294l-2.67.004v-7.126c0-.303-.213-.597-.517-.597h-4.91c-.303 0-.512.294-.512.597v7.198h-2.691c-.205 0-.393.079-.487.261s-.078.366.042.533l5.676 7.909c.103.144.269.205.445.205s.344-.062.447-.206z"/><path d="M13.018 7.927l.582.276M9.818 7.055l1.673 3.418m8.945-2.182l-1.683-.088" paint-order="markers stroke fill"/><rect width="17.177" height="3.618" x="20.714" y="10.359" rx="1.047" ry=".545" paint-order="markers stroke fill"/></g><text xml:space="preserve" x="16.632" y="39.251" transform="scale(.89041447 1.1230725)" font-weight="bold" font-size="15.28" font-family="Arial" fill="#fff" stroke="#000" paint-order="markers stroke fill"><tspan x="16.632" y="39.251" stroke="none">PNG</tspan></text></svg>