<svg xmlns="http://www.w3.org/2000/svg" fill="#ffffff" width="37.987" height="36.701" viewBox="0 0 59.355 57.345" stroke="#ffffff" xmlns:v="https://vecta.io/nano"><defs><linearGradient ><stop offset="0"/></linearGradient></defs><path d="M46.198 54.881L59.34 36.422c.276-.389.312-.887.093-1.312s-.694-.684-1.173-.685l-6.221.009V17.828c0-.706-.497-1.391-1.204-1.391H39.393c-.707 0-1.194.685-1.194 1.391v16.774h-6.27c-.478 0-.917.184-1.136.609s-.182.853.097 1.242l13.228 18.432c.239.335.626.477 1.038.477s.802-.144 1.042-.481zM24.979 66.933c1.822 0 3.398 2.057 3.915 4.432l5.278-3.702c-1.212-4.204-3.882-8.867-9.191-8.867-6.342 0-11.133 6.354-11.133 15.768 0 9.369 4.794 15.765 11.133 15.765 5.309 0 8.01-4.844 9.191-8.913l-5.278-3.656c-.515 2.374-2.093 4.432-3.915 4.432-2.942 0-4.915-3.382-4.915-7.632s1.971-7.628 4.915-7.628zM45.75 82.566c-2.731 0-5.007-1.737-6.524-3.93l-3.185 6.856c2.153 2.926 5.097 4.844 9.406 4.844 5.43 0 8.738-3.883 8.738-10.604 0-11.333-11.256-8.867-11.256-11.746 0-.776.333-1.37 1.548-1.37 1.911 0 4.187 1.004 5.945 3.015l3.277-6.535c-2.306-2.833-5.278-4.25-8.586-4.25-5.552 0-8.402 4.937-8.402 10.102 0 12.02 11.285 9.048 11.285 11.974 0 1.186-1.092 1.645-2.245 1.645zm24.915 7.219l7.462-30.483H71.18l-4.369 20.52-4.369-20.52h-6.947l7.462 30.483z" transform="matrix(.429116 0 0 .429116 9.943606 5.763641)" stroke="none"/><g stroke="none"><path d="M13.018 7.927l.582.276M9.818 7.055l1.673 3.418m8.945-2.182l-1.683-.088" paint-order="markers stroke fill"/><rect width="17.177" height="3.618" x="20.714" y="10.359" rx="1.047" ry=".545" paint-order="markers stroke fill"/></g></svg>