<?xml version="1.0" encoding="UTF-8" standalone="no"?>
<!-- Uploaded to: SVG Repo, www.svgrepo.com, Transformed by: SVG Repo Mixer Tools -->

<svg
   fill="#ffffff"
   version="1.1"
   id="Layer_1"
   width="37.987057"
   height="36.701023"
   viewBox="0 0 59.354776 57.345349"
   enable-background="new 0 0 100 100"
   xml:space="preserve"
   stroke="#ffffff"
   sodipodi:docname="export-csv.svg"
   inkscape:version="1.2.1 (9c6d41e410, 2022-07-14)"
   xmlns:inkscape="http://www.inkscape.org/namespaces/inkscape"
   xmlns:sodipodi="http://sodipodi.sourceforge.net/DTD/sodipodi-0.dtd"
   xmlns:xlink="http://www.w3.org/1999/xlink"
   xmlns="http://www.w3.org/2000/svg"
   xmlns:svg="http://www.w3.org/2000/svg"><defs
   id="defs1806"><inkscape:path-effect
     effect="powerstroke"
     id="path-effect672"
     is_visible="true"
     lpeversion="1"
     offset_points="0.23483817,1.7045455"
     not_jump="true"
     sort_points="true"
     interpolator_type="CentripetalCatmullRom"
     interpolator_beta="0.75"
     start_linecap_type="round"
     linejoin_type="spiro"
     miter_limit="4"
     scale_width="1"
     end_linecap_type="round" /><inkscape:path-effect
     effect="simplify"
     id="path-effect670"
     is_visible="true"
     lpeversion="1"
     steps="1"
     threshold="0.0047745358"
     smooth_angles="0"
     helper_size="0"
     simplify_individual_paths="false"
     simplify_just_coalesce="false"
     step="1" /><inkscape:path-effect
     effect="simplify"
     id="path-effect667"
     is_visible="true"
     lpeversion="1"
     steps="1"
     threshold="0.00172414"
     smooth_angles="360"
     helper_size="0"
     simplify_individual_paths="false"
     simplify_just_coalesce="false" /><inkscape:path-effect
     effect="powerstroke"
     id="path-effect661"
     is_visible="true"
     lpeversion="1"
     offset_points="0.43776256,1.7045455"
     not_jump="true"
     sort_points="true"
     interpolator_type="CentripetalCatmullRom"
     interpolator_beta="0.75"
     start_linecap_type="round"
     linejoin_type="spiro"
     miter_limit="4"
     scale_width="1"
     end_linecap_type="round" /><inkscape:path-effect
     effect="simplify"
     id="path-effect659"
     is_visible="true"
     lpeversion="1"
     steps="1"
     threshold="0.0047745358"
     smooth_angles="0"
     helper_size="0"
     simplify_individual_paths="false"
     simplify_just_coalesce="false"
     step="1" /><inkscape:path-effect
     effect="simplify"
     id="path-effect656"
     is_visible="true"
     lpeversion="1"
     steps="1"
     threshold="0.00172414"
     smooth_angles="360"
     helper_size="0"
     simplify_individual_paths="false"
     simplify_just_coalesce="false" /><inkscape:path-effect
     effect="simplify"
     id="path-effect652"
     is_visible="true"
     lpeversion="1"
     steps="1"
     threshold="0.00172414"
     smooth_angles="360"
     helper_size="0"
     simplify_individual_paths="false"
     simplify_just_coalesce="false" /><inkscape:path-effect
     effect="powerstroke"
     id="path-effect592"
     is_visible="true"
     lpeversion="1"
     offset_points="0.37148516,1.7045455"
     not_jump="true"
     sort_points="true"
     interpolator_type="CentripetalCatmullRom"
     interpolator_beta="0.75"
     start_linecap_type="round"
     linejoin_type="spiro"
     miter_limit="4"
     scale_width="1"
     end_linecap_type="round" /><inkscape:path-effect
     effect="simplify"
     id="path-effect590"
     is_visible="true"
     lpeversion="1"
     steps="1"
     threshold="0.0047745358"
     smooth_angles="0"
     helper_size="0"
     simplify_individual_paths="false"
     simplify_just_coalesce="false"
     step="1" /><linearGradient
     id="linearGradient2290"
     inkscape:swatch="solid"><stop
       style="stop-color:#000000;stop-opacity:1;"
       offset="0"
       id="stop2288" /></linearGradient><linearGradient
     inkscape:collect="always"
     xlink:href="#linearGradient2290"
     id="linearGradient2292"
     x1="4.7662501"
     y1="49.9995"
     x2="95.233749"
     y2="49.9995"
     gradientUnits="userSpaceOnUse" /><linearGradient
     inkscape:collect="always"
     xlink:href="#linearGradient2290"
     id="linearGradient2308"
     gradientUnits="userSpaceOnUse"
     x1="4.7662501"
     y1="49.9995"
     x2="95.233749"
     y2="49.9995"
     gradientTransform="matrix(2.3303741,0,0,2.3303741,-23.172319,-13.431442)" /><linearGradient
     inkscape:collect="always"
     xlink:href="#linearGradient2290"
     id="linearGradient2312"
     gradientUnits="userSpaceOnUse"
     x1="4.7662501"
     y1="49.9995"
     x2="95.233749"
     y2="49.9995"
     gradientTransform="matrix(2.3303741,0,0,2.3303741,-23.17232,-13.431444)" /><linearGradient
     inkscape:collect="always"
     xlink:href="#linearGradient2290"
     id="linearGradient2314"
     gradientUnits="userSpaceOnUse"
     x1="4.7662501"
     y1="49.9995"
     x2="95.233749"
     y2="49.9995"
     gradientTransform="matrix(2.3303741,0,0,2.3303741,-23.17232,-13.431444)" /><linearGradient
     inkscape:collect="always"
     xlink:href="#linearGradient2290"
     id="linearGradient2316"
     gradientUnits="userSpaceOnUse"
     x1="4.7662501"
     y1="49.9995"
     x2="95.233749"
     y2="49.9995"
     gradientTransform="matrix(1.0631037,0,0,0.70568816,4.2138606,39.836943)" /><linearGradient
     inkscape:collect="always"
     xlink:href="#linearGradient2290"
     id="linearGradient447"
     gradientUnits="userSpaceOnUse"
     gradientTransform="matrix(2.3303741,0,0,2.3303741,-23.172321,-13.431442)"
     x1="4.7662501"
     y1="49.9995"
     x2="95.233749"
     y2="49.9995" /><linearGradient
     inkscape:collect="always"
     xlink:href="#linearGradient2290"
     id="linearGradient449"
     gradientUnits="userSpaceOnUse"
     gradientTransform="matrix(2.3303741,0,0,2.3303741,-23.172321,-13.431442)"
     x1="4.7662501"
     y1="49.9995"
     x2="95.233749"
     y2="49.9995" /></defs><sodipodi:namedview
   id="namedview1804"
   pagecolor="#ffffff"
   bordercolor="#000000"
   borderopacity="0.25"
   inkscape:showpageshadow="2"
   inkscape:pageopacity="0.0"
   inkscape:pagecheckerboard="0"
   inkscape:deskcolor="#d1d1d1"
   showgrid="false"
   inkscape:zoom="13.75"
   inkscape:cx="-1.2727273"
   inkscape:cy="18.327273"
   inkscape:window-width="2560"
   inkscape:window-height="1369"
   inkscape:window-x="-8"
   inkscape:window-y="-8"
   inkscape:window-maximized="1"
   inkscape:current-layer="Layer_1" />

<g
   id="SVGRepo_bgCarrier"
   stroke-width="0"
   transform="translate(-20.32261,-21.327326)" />

<g
   id="SVGRepo_tracerCarrier"
   stroke-linecap="round"
   stroke-linejoin="round"
   transform="translate(-20.32261,-21.327326)" />

<g
   id="SVGRepo_iconCarrier"
   style="fill:#ffffff;stroke:url(#linearGradient449);stroke-width:0;stroke-dasharray:none;stroke-opacity:1"
   transform="matrix(0.42911565,0,0,0.42911565,9.9436063,5.7636413)"> <g
   id="g1800"
   style="fill:#ffffff;stroke:url(#linearGradient447);stroke-width:0;stroke-dasharray:none;stroke-opacity:1"> <path
   d="m 46.19824,54.881204 13.142,-18.459 c 0.276,-0.389 0.312,-0.887 0.093,-1.312 -0.218,-0.424 -0.694,-0.684 -1.173,-0.685 l -6.221,0.009 v -16.606 c 0,-0.706 -0.497,-1.391 -1.204,-1.391 h -11.442 c -0.707,0 -1.194,0.685 -1.194,1.391 v 16.774 h -6.27 c -0.478,0 -0.917,0.184 -1.136,0.609 -0.219,0.425 -0.182,0.853 0.097,1.242 l 13.228,18.432 c 0.239,0.335 0.626,0.477 1.038,0.477 0.002,0 0.002,0 0.002,0 0.414,0 0.8,-0.144 1.04,-0.481 z"
   id="path1790"
   style="fill:#ffffff;stroke:url(#linearGradient2308);stroke-width:0;stroke-dasharray:none;stroke-opacity:1" />  <path
   d="m 24.978507,66.932831 c 1.821592,0 3.397675,2.057315 3.914998,4.431649 l 5.278451,-3.701847 c -1.212202,-4.203792 -3.882117,-8.8666 -9.191257,-8.8666 -6.341594,0 -11.13341,6.353571 -11.13341,15.768348 0,9.368545 4.794008,15.765045 11.13341,15.765045 5.30914,0 8.009743,-4.844432 9.191257,-8.912831 L 28.893505,77.76098 c -0.515131,2.374333 -2.093406,4.431649 -3.914998,4.431649 -2.941728,0 -4.914571,-3.381527 -4.914571,-7.63155 0,-4.250024 1.970651,-7.628248 4.914571,-7.628248 z"
   id="path1794"
   style="fill:#ffffff;stroke:url(#linearGradient2312);stroke-width:0;stroke-dasharray:none;stroke-opacity:1" /> <path
   d="m 45.750353,82.565785 c -2.731292,0 -5.006638,-1.736995 -6.523535,-3.929703 l -3.185045,6.855516 c 2.152591,2.925813 5.096511,4.844433 9.406077,4.844433 5.429702,0 8.737503,-3.883472 8.737503,-10.603595 0,-11.333397 -11.256166,-8.8666 -11.256166,-11.746181 0,-0.776033 0.333191,-1.370442 1.547586,-1.370442 1.911465,0 4.186811,1.00389 5.944833,3.014974 l 3.277112,-6.535196 c -2.306034,-2.833349 -5.278451,-4.250024 -8.586251,-4.250024 -5.552457,0 -8.40212,4.936897 -8.40212,10.10165 0,12.020269 11.284663,9.048224 11.284663,11.974037 0,1.185516 -1.09164,1.644531 -2.244657,1.644531 z"
   id="path1796"
   style="fill:#ffffff;stroke:url(#linearGradient2314);stroke-width:0;stroke-dasharray:none;stroke-opacity:1" /> <polygon
   points="47.022,71.093 50.426,61.862 47.257,61.862 45.264,68.076 43.271,61.862 40.102,61.862 43.506,71.093 "
   id="polygon1798"
   style="fill:#ffffff;stroke:url(#linearGradient2316);stroke-width:0;stroke-dasharray:none;stroke-opacity:1"
   transform="matrix(2.1920478,0,0,3.3022718,-32.409304,-144.98385)" /> </g> </g>

<path
   style="paint-order:markers stroke fill;fill:#ffffff;stroke-linecap:square;stroke:none;stroke-linejoin:round;stroke-width:0"
   d="M 13.018182,7.9272727 C 13.212121,8.0191637 13.406061,8.1110546 13.6,8.2029456"
   id="path650"
   inkscape:path-effect="#path-effect652"
   inkscape:original-d="M 13.018182,7.9272727 13.6,8.2029456" /><path
   style="paint-order:markers stroke fill;fill:#ffffff;stroke-linecap:square;stroke:none;stroke-linejoin:round;stroke-width:0"
   d="M 9.8181818,7.0545455 C 10.375758,8.1939393 10.933333,9.3333332 11.490909,10.472727"
   id="path654"
   inkscape:path-effect="#path-effect656"
   inkscape:original-d="M 9.8181818,7.0545455 11.490909,10.472727" /><path
   style="paint-order:markers stroke fill;fill:#ffffff;stroke-linecap:square;stroke:none;stroke-linejoin:round;stroke-width:0"
   d="M 20.436364,8.2909091 C 19.875514,8.261588 19.314663,8.2322669 18.753813,8.2029458"
   id="path665"
   inkscape:path-effect="#path-effect667"
   inkscape:original-d="M 20.436364,8.2909091 18.753813,8.2029458" /><rect
   style="fill:#ffffff;stroke:#000000;stroke-width:0;stroke-linecap:square;stroke-linejoin:round;paint-order:markers stroke fill"
   id="rect676"
   width="17.177273"
   height="3.6181822"
   x="20.713905"
   y="10.359091"
   rx="1.047133"
   ry="0.54506588" /></svg>
