<?xml version="1.0" encoding="UTF-8" standalone="no"?>
<!-- Uploaded to: SVG Repo, www.svgrepo.com, Transformed by: SVG Repo Mixer Tools -->

<svg
   width="64.704002"
   height="75.01564"
   viewBox="0 0 101.1 117.21194"
   aria-hidden="true"
   role="img"
   class="iconify iconify--gis"
   preserveAspectRatio="xMidYMid"
   fill="#ffffff"
   stroke="#ffffff"
   version="1.1"
   id="svg7"
   sodipodi:docname="go_point.svg"
   xml:space="preserve"
   inkscape:version="1.2.1 (9c6d41e410, 2022-07-14)"
   xmlns:inkscape="http://www.inkscape.org/namespaces/inkscape"
   xmlns:sodipodi="http://sodipodi.sourceforge.net/DTD/sodipodi-0.dtd"
   xmlns:xlink="http://www.w3.org/1999/xlink"
   xmlns="http://www.w3.org/2000/svg"
   xmlns:svg="http://www.w3.org/2000/svg"><defs
     id="defs11"><linearGradient
       id="linearGradient18637"
       inkscape:swatch="solid"><stop
         style="stop-color:#ffffff;stop-opacity:1;"
         offset="0"
         id="stop18635" /></linearGradient><linearGradient
       id="linearGradient16603"
       inkscape:swatch="solid"><stop
         style="stop-color:#800000;stop-opacity:1;"
         offset="0"
         id="stop16601" /></linearGradient><linearGradient
       inkscape:collect="always"
       xlink:href="#linearGradient16603"
       id="linearGradient16605"
       x1="5.5745249"
       y1="11.999622"
       x2="17.825756"
       y2="11.999622"
       gradientUnits="userSpaceOnUse"
       gradientTransform="matrix(0.76251485,0,0,0.76251485,2.7785139,1.297369)" /><linearGradient
       inkscape:collect="always"
       xlink:href="#linearGradient16603"
       id="linearGradient18434"
       gradientUnits="userSpaceOnUse"
       x1="5.5745249"
       y1="11.999622"
       x2="17.825756"
       y2="11.999622"
       gradientTransform="matrix(0.76251485,0,0,0.76251485,2.7785139,1.297369)" /><linearGradient
       inkscape:collect="always"
       xlink:href="#linearGradient16603"
       id="linearGradient18436"
       gradientUnits="userSpaceOnUse"
       x1="5.5745249"
       y1="11.999622"
       x2="17.825756"
       y2="11.999622"
       gradientTransform="matrix(0.76251485,0,0,0.76251485,2.7785139,1.297369)" /><linearGradient
       inkscape:collect="always"
       xlink:href="#linearGradient16603"
       id="linearGradient18438"
       gradientUnits="userSpaceOnUse"
       x1="5.5745249"
       y1="11.999622"
       x2="17.825756"
       y2="11.999622"
       gradientTransform="matrix(0.76251485,0,0,0.76251485,2.7785139,1.297369)" /><linearGradient
       inkscape:collect="always"
       xlink:href="#linearGradient16603"
       id="linearGradient18440"
       gradientUnits="userSpaceOnUse"
       x1="5.5745249"
       y1="11.999622"
       x2="17.825756"
       y2="11.999622"
       gradientTransform="matrix(0.76251485,0,0,0.76251485,2.7785139,1.297369)" /><linearGradient
       inkscape:collect="always"
       xlink:href="#linearGradient18637"
       id="linearGradient18639"
       x1="4.375"
       y1="7.5"
       x2="10.625"
       y2="7.5"
       gradientUnits="userSpaceOnUse"
       gradientTransform="matrix(0.8715802,0,0,0.8715802,3.9014592,-5.8250851)" /><linearGradient
       inkscape:collect="always"
       xlink:href="#linearGradient16603"
       id="linearGradient18641"
       gradientUnits="userSpaceOnUse"
       x1="4.375"
       y1="7.5"
       x2="10.625"
       y2="7.5"
       gradientTransform="matrix(0.8715802,0,0,0.8715802,3.9014592,-5.8250851)" /></defs><sodipodi:namedview
     id="namedview9"
     pagecolor="#ffffff"
     bordercolor="#000000"
     borderopacity="0.25"
     inkscape:showpageshadow="2"
     inkscape:pageopacity="0.0"
     inkscape:pagecheckerboard="0"
     inkscape:deskcolor="#d1d1d1"
     showgrid="false"
     inkscape:zoom="9.7227182"
     inkscape:cx="36.975257"
     inkscape:cy="36.820979"
     inkscape:window-width="1920"
     inkscape:window-height="1009"
     inkscape:window-x="3832"
     inkscape:window-y="-8"
     inkscape:window-maximized="1"
     inkscape:current-layer="svg7" /><g
     id="SVGRepo_bgCarrier"
     stroke-width="0"
     style="fill:#2b0000"
     transform="translate(0.55,12.035933)" /><g
     id="SVGRepo_tracerCarrier"
     stroke-linecap="round"
     stroke-linejoin="round"
     style="fill:#2b0000"
     transform="translate(0.55,12.035933)" /><g
     id="SVGRepo_iconCarrier"
     style="fill:#ffffff"
     transform="translate(0.55,27.660933)" /><g
     id="SVGRepo_iconCarrier-8"
     transform="matrix(7.6489423,0,0,7.6489423,-7.3635926,22.840009)"
     style="fill:#ffffff;stroke:url(#linearGradient18639);stroke-width:0;stroke-dasharray:none;stroke-opacity:1"><path
       fill-rule="evenodd"
       clip-rule="evenodd"
       d="M 7.5,9.125 C 8.39746,9.125 9.125,8.39746 9.125,7.5 9.125,6.60254 8.39746,5.875 7.5,5.875 6.60254,5.875 5.875,6.60254 5.875,7.5 c 0,0.89746 0.72754,1.625 1.625,1.625 z m 0,1 c 1.44975,0 2.625,-1.17525 2.625,-2.625 0,-1.44975 -1.17525,-2.625 -2.625,-2.625 -1.44975,0 -2.625,1.17525 -2.625,2.625 0,1.44975 1.17525,2.625 2.625,2.625 z"
       fill="#ffffff"
       id="path18482"
       style="fill:#ffffff;stroke:url(#linearGradient18641);stroke-width:0;stroke-dasharray:none;stroke-opacity:1" /></g><g
     style="fill:#800000;stroke:url(#linearGradient16605);stroke-width:0.1875;stroke-dasharray:none"
     id="g16236"
     transform="matrix(5.4643744,0,0,5.4643744,-13.383346,-22.710531)"><g
       id="SVGRepo_bgCarrier-7"
       stroke-width="0"
       style="fill:#800000;stroke:url(#linearGradient18434);stroke-width:0.1875;stroke-dasharray:none" /><g
       id="SVGRepo_tracerCarrier-6"
       stroke-linecap="round"
       stroke-linejoin="round"
       style="fill:#800000;stroke:url(#linearGradient18436);stroke-width:0.1875;stroke-dasharray:none" /><g
       id="SVGRepo_iconCarrier-3"
       style="fill:#800000;stroke:url(#linearGradient18440);stroke-width:0.1875;stroke-dasharray:none"><path
         d="m 11.7,4.25 c -0.4142,-10e-6 -0.75,0.33577 -0.75,0.74998 0,0.41422 0.3358,0.75001 0.75,0.75002 z m 1.8652,1.126 0.2903,-0.69154 -3e-4,-1.1e-4 z m 2.1879,1.824 -0.6263,0.41262 4e-4,6.8e-4 z m 0.8219,2.74 h 0.75 V 9.93883 Z m -1.4284,3.493 -0.6106,-0.4354 c -0.0089,0.0124 -0.0174,0.0252 -0.0255,0.0381 z M 13.7309,15.7 13.0948,15.3027 13.0922,15.3069 Z M 11.7,19 11.0617,19.3937 c 0.1366,0.2216 0.3784,0.3564 0.6387,0.3563 0.2603,-10e-5 0.5019,-0.1352 0.6383,-0.3569 z M 9.66909,15.707 10.3075,15.3133 10.3055,15.3102 Z M 8.25339,13.436 8.88985,13.0392 C 8.88178,13.0263 8.87332,13.0136 8.86447,13.0012 Z M 6.82501,9.943 6.07501,9.94227 V 9.943 Z M 7.64694,7.2 l 0.62584,0.4133 4e-5,-6e-5 z M 9.83484,5.379 10.1247,6.07072 10.126,6.07018 Z M 11.7011,5.75 C 12.1154,5.74937 12.4506,5.41308 12.45,4.99887 12.4494,4.58465 12.1131,4.24938 11.6989,4.25 Z M 11.7,10.837 c -0.4142,0 -0.75,0.3358 -0.75,0.75 0,0.4142 0.3358,0.75 0.75,0.75 z m 0,-3.294 c -0.4142,0 -0.75,0.33579 -0.75,0.75 0,0.41421 0.3358,0.75 0.75,0.75 z m 0.019,4.7998 c 0.414,-0.0105 0.7412,-0.3547 0.7308,-0.7688 -0.0105,-0.414 -0.3547,-0.7412 -0.7687,-0.7308 z m -1.4426,-1.5611 0.6506,-0.3732 v 0 z m 0,-1.67039 -0.65056,-0.37319 v 0 z M 11.6811,9.04976 C 12.0951,9.06023 12.4393,8.73303 12.4498,8.31895 12.4602,7.90487 12.133,7.56071 11.719,7.55024 Z M 11.7,5.75 c 0.5396,10e-6 1.0746,0.10774 1.5751,0.31765 l 0.5801,-1.3833 C 13.1717,4.39771 12.4396,4.25002 11.7,4.25 Z m 1.5749,0.31754 c 0.7497,0.3147 1.3948,0.85128 1.8519,1.54508 L 16.3794,6.78738 C 15.761,5.84877 14.8836,5.11602 13.8555,4.68446 Z m 1.8523,1.54576 c 0.4528,0.68556 0.6965,1.49626 0.6978,2.32787 l 1.5,-0.00234 C 17.3233,8.81655 16.9945,7.71889 16.3789,6.7867 Z M 15.825,9.94 c 0,0.5644 -0.0851,0.9765 -0.2694,1.4027 -0.1948,0.4504 -0.5095,0.9395 -1.0196,1.6549 l 1.2213,0.8708 c 0.5117,-0.7176 0.9111,-1.32 1.1751,-1.9303 0.2744,-0.6346 0.3926,-1.2525 0.3926,-1.9981 z m -1.3145,3.0957 -1.4157,2.267 1.2723,0.7946 1.4157,-2.267 z m -1.4183,2.2712 -2.0309,3.3 1.2774,0.7862 2.031,-3.3 z m -0.7538,3.2994 -2.031,-3.293 -1.27667,0.7874 2.03097,3.293 z m -2.0329,-3.2961 -1.41565,-2.271 -1.27292,0.7936 1.4157,2.271 z M 8.86447,13.0012 C 8.35405,12.2838 8.03922,11.7947 7.84433,11.3444 7.66008,10.9186 7.57501,10.5073 7.57501,9.943 h -1.5 c 0,0.7457 0.11823,1.3629 0.39271,1.9971 0.26385,0.6097 0.66321,1.2121 1.17458,1.9307 z M 7.57501,9.94373 C 7.57582,9.11123 7.81958,8.29958 8.27278,7.6133 L 7.02109,6.7867 C 6.40485,7.71986 6.0761,8.81882 6.07501,9.94227 Z M 8.27282,7.61324 C 8.73027,6.92039 9.37536,6.38473 10.1247,6.07072 L 9.54497,4.68728 C 8.51733,5.11791 7.63993,5.84942 7.02105,6.78676 Z M 10.126,6.07018 C 10.6264,5.8594 11.1613,5.75081 11.7011,5.75 L 11.6989,4.25 C 10.9591,4.25112 10.227,4.39999 9.54369,4.68782 Z M 11.7,12.337 c 0.851,0 1.6277,-0.4656 2.0443,-1.2056 L 12.4371,10.3956 C 12.28,10.6748 11.9964,10.837 11.7,10.837 Z m 2.0443,-1.2056 c 0.4154,-0.738 0.4154,-1.6448 0,-2.3828 l -1.3072,0.7358 c 0.1583,0.28117 0.1583,0.63 0,0.9112 z m 0,-2.3828 C 13.3277,8.00864 12.551,7.543 11.7,7.543 v 1.5 c 0.2964,0 0.58,0.1622 0.7371,0.4414 z m -2.0632,2.0946 C 11.38,10.8508 11.0889,10.6908 10.927,10.4085 l -1.30116,0.7464 c 0.42946,0.7487 1.22826,1.2097 2.09316,1.1879 z M 10.927,10.4085 c -0.1632,-0.2844 -0.1632,-0.63964 0,-0.924 L 9.62584,8.73812 c -0.42829,0.74662 -0.42829,1.67018 0,2.41678 z m 0,-0.924 C 11.0889,9.20225 11.38,9.04215 11.6811,9.04976 L 11.719,7.55024 C 10.8541,7.52838 10.0553,7.9894 9.62584,8.73812 Z"
         fill="#ffffff"
         id="path16223"
         style="fill:#800000;stroke:url(#linearGradient18438);stroke-width:0.1875;stroke-dasharray:none" /></g></g></svg>
