<svg xmlns="http://www.w3.org/2000/svg" width="64" height="64" viewBox="0 0 24 24" fill="#fff" stroke="#dcebeb" xmlns:v="https://vecta.io/nano"><path d="M12.484 12.75h-4.9c-.089 0-.174-.079-.236-.22A1.35 1.35 0 0 1 7.25 12a1.35 1.35 0 0 1 .098-.53c.063-.141.148-.22.236-.22h4.9c.089 0 .174.079.236.22a1.35 1.35 0 0 1 .098.53 1.35 1.35 0 0 1-.098.53c-.063.141-.148.22-.236.22zM19 8.25H8a.75.75 0 1 1 0-1.5h11a.75.75 0 1 1 0 1.5zm-6.515 9H7.584c-.089 0-.174-.079-.236-.22a1.35 1.35 0 0 1-.098-.53 1.35 1.35 0 0 1 .098-.53c.063-.141.148-.22.236-.22h4.901c.089 0 .174.079.236.22a1.35 1.35 0 0 1 .098.53 1.35 1.35 0 0 1-.098.53c-.063.141-.148.22-.236.22zM5 8.5a1 1 0 0 1-.38-.07 1.46 1.46 0 0 1-.33-.22A1 1 0 0 1 4 7.5a1.05 1.05 0 0 1 .29-.71.93.93 0 0 1 .33-.21 1 1 0 0 1 .76 0 1 1 0 0 1 .33.21A1.05 1.05 0 0 1 6 7.5a1 1 0 0 1-.29.71 1.46 1.46 0 0 1-.33.22A1 1 0 0 1 5 8.5zM5 13a1 1 0 0 1-.38-.08 1.15 1.15 0 0 1-.33-.21A1 1 0 0 1 4 12a1.05 1.05 0 0 1 .29-.71 1.15 1.15 0 0 1 .33-.21A1 1 0 0 1 5.2 11l.18.06.18.09a1.58 1.58 0 0 1 .15.12A1.05 1.05 0 0 1 6 12a1 1 0 0 1-1 1zm0 4.5a1 1 0 0 1-.38-.07 1.46 1.46 0 0 1-.33-.22 1.15 1.15 0 0 1-.21-.33.94.94 0 0 1 0-.76 1.15 1.15 0 0 1 .21-.33 1 1 0 0 1 1.09-.21 1 1 0 0 1 .33.21 1.15 1.15 0 0 1 .21.33.94.94 0 0 1 0 .76 1.15 1.15 0 0 1-.21.33 1 1 0 0 1-.71.29z" stroke="none"/><path d="M19.26 16.491H14.1v-.157l1.518-1.457 1.153 1.108c.118.113.31.113.428 0l2.276-2.186c.057-.055.09-.129.09-.207s-.032-.152-.09-.207c-.118-.113-.31-.113-.428 0l-2.064 1.982-1.15-1.108c-.118-.113-.31-.113-.428 0l-1.305 1.25v-1.507l1.518-1.457.85.816c.118.113.31.113.428 0l1.454-1.396.665.638c.119.113.311.113.429-.002s.117-.299-.001-.412l-.883-.842c-.118-.113-.31-.113-.428 0l-1.457 1.399-.847-.816c-.118-.113-.31-.113-.428 0L14.1 13.176v-1.641c0-.161-.136-.291-.304-.291s-.303.13-.304.291v5.247c0 .077.032.151.089.206a.31.31 0 0 0 .215.085h5.463c.168 0 .304-.131.304-.291s-.136-.291-.304-.291z" stroke="#fff" stroke-width=".363"/></svg>