<svg xmlns="http://www.w3.org/2000/svg" width="64" height="64" viewBox="0 0 48 48" fill="#ffffff" stroke="#ffffff" xmlns:v="https://vecta.io/nano"><defs><linearGradient ><stop offset="0"/></linearGradient></defs><path d="M42 40H8v-8.3l6.2-6.4a6.4 6.4 0 0 0 2.8.7 6.1 6.1 0 0 0 3.3-1l2.4 2.1A7.3 7.3 0 0 0 22 30a6 6 0 1 0 12 0 5.7 5.7 0 0 0-.9-3.2l3.8-4.2a5.2 5.2 0 0 0 2.1.4 6 6 0 1 0 0-12 6 6 0 0 0-6 6 5.8 5.8 0 0 0 .8 3l-3.9 4.3A5.8 5.8 0 0 0 28 24a7 7 0 0 0-2.5.5l-2.8-2.6A5.8 5.8 0 0 0 23 20a6 6 0 0 0-10.295-4.188A6 6 0 0 0 11.5 22.4L8 26.1V6a2 2 0 1 0-4 0v38h38a2 2 0 1 0 0-4zm-5-23.4h0a2.1 2.1 0 0 1 1.5-1.5h.5a2 2 0 1 1 0 4 2 2 0 0 1-2-2zM28 28a2 2 0 0 1 2 2v.2a2.1 2.1 0 0 1-1.7 1.8H28a2 2 0 0 1-2-1.9h0a2 2 0 0 1 2-2.1zM17 18a2 2 0 1 1 0 4 2 2 0 1 1 0-4z" stroke="none" transform="matrix(.589476 0 0 .587327 9.554344 9.90415)"/></svg>